/* XPM */
static const char *ProcessorIcon[] = {
/* columns rows colors chars-per-pixel */
"13 13 2 1 ",
"  c black",
". c #C0C0C0",
/* pixels */
"             ",
"   . . . .   ",
"             ",
" . ....... . ",
"   .......   ",
" . ....... . ",
"   .......   ",
" . ....... . ",
"   .......   ",
" . ....... . ",
"             ",
"   . . . .   ",
"             "
};
