/* XPM */
static const char *TxMidiLogo[] = {
/* columns rows colors chars-per-pixel */
"120 58 16 1 ",
"  c #343434",
". c #808080",
"X c #6C6C6C",
"o c gray10",
"O c gray37",
"+ c gray13",
"@ c #555555",
"# c black",
"$ c #646464",
"% c gray31",
"& c gray25",
"* c #717171",
"= c #777777",
"- c gray16",
"; c #484848",
": c #090909",
/* pixels */
"###o++++++++++++++++++++++++++++++++++++++++++++++++++++++++++++++++++++++++++++++++++++++++++++++++++++++++++++++o#####",
"###$..............................................................................................................$#####",
"###$..............................................................................................................$#####",
"###$..............................................................................................................$#####",
"###$...........................................=;&&&&&&&@........=;&&&&&&&%.......................................$#####",
"###$...........................................Xo&&&&&&&o=.......O:&&&&&& o.......................................$#####",
"###$...........................................$ .......+X.......% ......=-=......................................$#####",
"###oooooooooooO......&ooooooooooooooooooooooooo: .......-:ooooooo:;.......+oooooooooooooooooooooooooooooooooooooooo#####",
"##############%......-########################## ....... #########O.......+#############################################",
"##############%......-########################## .......;#########$.......+#############################################",
"##############%......-##########################&.......@########:*.......-#############################################",
"##############%......-##########################&.......X########o........ #############################################",
"##############%......-##########################%.......=:#######+........ #############################################",
"##############%......-##########################@........o####### ........&####-&&:###############+@%%%%@-###o&&+#######",
"##############%......-##########################O........+#######;........;##:O...=-############## ......;##-....%######",
"##############%......-##########################O........ #######@........%##&.....*:############# ......;#:X.....-#####",
"##############%......-##########################$........;#######$........@##O......+############# ......;#+......@#####",
"##############%......-##########################X........@######:*........@##$......-############# ......;# ......O#####",
"##############%......-#########################:*........$######o.........O##@.....=o############# ......;#+......@#####",
"##############%......-#########################:=........*:#####+.........$##o.....%############## ......;#:*..... #####",
"##############%......-#########################:=.........o##### .........$###-*.=;############### ......;## ....@######",
"##############%......-#########################o..........+#####&.........$####:o:################ ......;### %@ #######",
"##############%......-#########################o.......... #####@.........X####################### ......;##############",
"##############%......-#########################+..........&#####$...=.....X###::::::########o  -:# ......;##############",
"##############%......-#########################-.....=....@####:*...O=....X##%=****=+#####+$....*o-......;##:::::::#####",
"##############%......-######################### ....=*....$####:=...;=....*:#@......-#### .......X;......;#o=====.@#####",
"##############%......-######################### ....=O....*:###+.... =....*:#@......-###-................;#o......O#####",
"##############%......-#########################&....=;.....o###-...=-=....=:#@......-##:X................;#o......O#####",
"##############%......-#########################;....=-.....-### ...Xo=....=:#@......-##&.................;#o......O#####",
"##############%......-#########################%....=o*....;###;...O:=....=:#@......-#:=......=& *.......;#o......O#####",
"##############%......-#########################@....=:$....O###O...;:=.....o#@......-#-.......+##-.......;#o......O#####",
"##############%......-##:&&&&&&&o####o&&&&&& ##O....*#;....X##:*... #=.....o#@......-#%......@####O......;#o......O#####",
"##############%......-###O......O####%...... ##$....X# ....=:#o.... #=.....+#@......-#$...... ####&......;#o......O#####",
"##############%......-###:=......-##:*.....%###X....X#o.....+# ....+#*.....+#@......-#X......o#### ......;#o......O#####",
"##############%......-####%......@##&.....*:##:*....$##*.... #;....o#X.....-#@......-#*.....=:#### ......;#o......O#####",
"##############%......-####:*.....*:#X..... ###:=....$##@....%#O...*:#$..... #@......-#=.....*:#### ......;#o......O#####",
"##############%......-#####-...... -.....;####:=....O## ....X:*...@##O..... #@......-#=.....X##### ......;#o......O#####",
"##############%......-######@.....XO....=:####o.....@##o....=+=... ##O.....&#@......-#=.....X##### ......;#o......O#####",
"##############%......-######o=..........;#####o.....@##:*....&....+##@.....;#@......-#=.....*:#### ......;#o......O#####",
"##############%......-####### .........X:#####+.....%###X....X...*:##%.....;#@......-#*.....=:#### ......;#o......O#####",
"##############%......-#######:*........+######-.....&###@........@###&.....@#@......-#X......o#### ......;#o......O#####",
"##############%......-#######:=........%###### .....&### ........ ###&.....@#@......-#$...... #### ......;#o......O#####",
"##############%......-#######;..........+##### .....&###o........o### .....O#@......-#@......%####@......;#o......O#####",
"##############%......-######-.....=.....X:####&..... ####X......X#### .....$#@......-# ......=o##+.......;#o......O#####",
"##############%......-#####:X....X ...... ####;..... ####@......%####-.....X#@......-#:=......=&&*.......%#o......O#####",
"##############%......-#####;.....%#*.....*:###%..... #### ...... ####+.....X#@......-##%.................%#o......O#####",
"##############%......-####+......-#&......%###@.....-####o......o####+.....*#@......-##o.................%#o......O#####",
"##############%......-####$.....$##:X...... ##O.....-#####X....X#####o.....=:@......-### .........X%.....@#o......O#####",
"##############%......-###-...... ### ......=:#$.....-#####@....@#####o.....=:@......-####&.......=o-.....O#o......O#####",
"##############%......-##:*.....X:####X......@#$.....+#####o&&&&+#####:=....=:%======+##### *....$o#o=====@#o......O#####",
"###::::::::::#o------:##o------o#:::#o------+:oooooo::::::######::::::oooooo::::::::::::::#:-&&+:#::::::::#+......O#####",
"###@=*********XXXXXXX****XXXXXXX*****XXXXXXXX*XXXXXX******************XXXXXX**XXXXXX********XXXX****XXXXX***......$#####",
"###$..............................................................................................................$#####",
"###$..............................................................................................................$#####",
"###$..............................................................................................................$#####",
"###$..............................................................................................................$#####",
"###&@%%%%%%%%%%%%%%%%%%%%%%%%%%%%%%%%%%%%%%%%%%%%%%%%%%%%%%%%%%%%%%%%%%%%%%%%%%%%%%%%%%%%%%%%%%%%%%%%%%%%%%%%%%%%@&#####",
"########################################################################################################################"
};
